<?xml version="1.0" encoding="utf-8"?>
<!-- Generator: Adobe Illustrator 23.0.3, SVG Export Plug-In . SVG Version: 6.00 Build 0)  -->
<svg version="1.1" xmlns="http://www.w3.org/2000/svg" xmlns:xlink="http://www.w3.org/1999/xlink" x="0px" y="0px"
	 viewBox="0 0 192.76 38.91" style="enable-background:new 0 0 192.76 38.91;" xml:space="preserve">
<style type="text/css">
	.st0{fill:#EEBF60;}
	.st1{fill:#273549;}
	.st2{fill:#484747;}
	.st3{fill:#C9CACA;}
	.st4{fill:#B5B5B6;}
	.st5{fill:none;}
</style>
<g id="レイヤー_1">
</g>
<g id="_x36_">
	<g>
		<g>
			<path class="st0" d="M42.55,33.13c-0.14-0.09-0.44-0.22-0.85-0.22c-0.67,0-0.92,0.41-0.92,0.76c0,0.47,0.29,0.71,0.93,0.98
				c0.78,0.33,1.17,0.73,1.17,1.41c0,0.76-0.56,1.35-1.59,1.35c-0.44,0-0.91-0.13-1.15-0.3l0.15-0.44c0.26,0.17,0.64,0.3,1.04,0.3
				c0.64,0,1.02-0.35,1.02-0.86c0-0.47-0.26-0.76-0.88-1.02c-0.73-0.27-1.22-0.69-1.22-1.36c0-0.73,0.59-1.27,1.47-1.27
				c0.45,0,0.8,0.11,0.99,0.23L42.55,33.13z"/>
			<path class="st0" d="M44.49,33.28L45,33.11v0.8h0.89v0.41H45v1.99c0,0.44,0.13,0.68,0.47,0.68c0.16,0,0.27-0.02,0.35-0.05
				l0.03,0.4c-0.11,0.05-0.29,0.08-0.51,0.08c-0.83,0-0.86-0.76-0.86-1.12v-1.98h-0.53v-0.41h0.53V33.28z"/>
			<path class="st0" d="M50.14,35.6c0,1.28-0.85,1.82-1.61,1.82c-0.88,0-1.57-0.66-1.57-1.77c0-1.17,0.73-1.82,1.61-1.82
				C49.51,33.83,50.14,34.55,50.14,35.6z M48.55,34.24c-0.75,0-1.05,0.73-1.05,1.4c0,0.76,0.42,1.38,1.04,1.38
				c0.63,0,1.06-0.62,1.06-1.4C49.6,35.01,49.3,34.24,48.55,34.24z"/>
			<path class="st0" d="M53.89,37.22c-0.15,0.08-0.49,0.2-0.93,0.2c-0.98,0-1.64-0.7-1.64-1.76c0-1.06,0.7-1.84,1.76-1.84
				c0.39,0,0.69,0.11,0.83,0.18l-0.13,0.42c-0.15-0.08-0.37-0.18-0.71-0.18c-0.8,0-1.21,0.64-1.21,1.38c0,0.83,0.5,1.36,1.19,1.36
				c0.34,0,0.57-0.09,0.75-0.17L53.89,37.22z"/>
			<path class="st0" d="M57.92,37.35h-0.64l-1.19-1.7l-0.32,0.36v1.34h-0.52V32.3h0.52v3.21h0.01c0.08-0.12,0.2-0.27,0.3-0.39
				l1.03-1.22h0.63l-1.29,1.42L57.92,37.35z"/>
			<path class="st0" d="M63.44,37.22c-0.15,0.08-0.49,0.2-0.93,0.2c-0.98,0-1.64-0.7-1.64-1.76c0-1.06,0.7-1.84,1.76-1.84
				c0.39,0,0.69,0.11,0.83,0.18l-0.13,0.42c-0.15-0.08-0.37-0.18-0.71-0.18c-0.8,0-1.21,0.64-1.21,1.38c0,0.83,0.5,1.36,1.19,1.36
				c0.34,0,0.57-0.09,0.75-0.17L63.44,37.22z"/>
			<path class="st0" d="M67.73,35.6c0,1.28-0.85,1.82-1.61,1.82c-0.88,0-1.57-0.66-1.57-1.77c0-1.17,0.73-1.82,1.61-1.82
				C67.1,33.83,67.73,34.55,67.73,35.6z M66.14,34.24c-0.75,0-1.05,0.73-1.05,1.4c0,0.76,0.42,1.38,1.04,1.38
				c0.63,0,1.06-0.62,1.06-1.4C67.19,35.01,66.9,34.24,66.14,34.24z"/>
			<path class="st0" d="M71.91,37.35h-0.52v-2.03c0-0.56-0.2-1.05-0.8-1.05c-0.45,0-0.9,0.38-0.9,0.98v2.11h-0.52v-2.56
				c0-0.35-0.01-0.61-0.03-0.89h0.47l0.03,0.56h0.01c0.17-0.33,0.57-0.64,1.11-0.64c0.43,0,1.16,0.26,1.16,1.43V37.35z"/>
			<path class="st0" d="M73.69,33.28l0.52-0.18v0.8h0.89v0.41h-0.89v1.99c0,0.44,0.13,0.68,0.47,0.68c0.16,0,0.27-0.02,0.35-0.05
				l0.03,0.4c-0.11,0.05-0.29,0.08-0.51,0.08c-0.83,0-0.86-0.76-0.86-1.12v-1.98h-0.53v-0.41h0.53V33.28z"/>
			<path class="st0" d="M77.99,34.35c-0.06-0.01-0.11-0.01-0.19-0.01c-0.57,0-0.86,0.56-0.86,1.14v1.87h-0.52v-2.41
				c0-0.37-0.01-0.7-0.03-1.03h0.46l0.03,0.66h0.02c0.15-0.43,0.51-0.74,0.93-0.74c0.06,0,0.1,0.01,0.16,0.02V34.35z"/>
			<path class="st0" d="M82.16,35.6c0,1.28-0.85,1.82-1.61,1.82c-0.88,0-1.57-0.66-1.57-1.77c0-1.17,0.73-1.82,1.61-1.82
				C81.53,33.83,82.16,34.55,82.16,35.6z M80.57,34.24c-0.75,0-1.05,0.73-1.05,1.4c0,0.76,0.42,1.38,1.04,1.38
				c0.63,0,1.06-0.62,1.06-1.4C81.62,35.01,81.33,34.24,80.57,34.24z"/>
			<path class="st0" d="M84.11,37.35h-0.52V32.3h0.52V37.35z"/>
			<path class="st0" d="M89.49,34.43c-0.13-0.08-0.36-0.2-0.67-0.2c-0.38,0-0.58,0.23-0.58,0.51c0,0.3,0.2,0.44,0.64,0.63
				c0.56,0.23,0.88,0.52,0.88,1.04c0,0.61-0.47,1.02-1.22,1.02c-0.34,0-0.67-0.09-0.9-0.23l0.15-0.4c0.18,0.11,0.48,0.23,0.78,0.23
				c0.46,0,0.69-0.25,0.69-0.56c0-0.32-0.18-0.5-0.64-0.68c-0.58-0.23-0.88-0.56-0.88-0.97c0-0.54,0.43-0.98,1.12-0.98
				c0.33,0,0.61,0.09,0.79,0.21L89.49,34.43z"/>
			<path class="st0" d="M93.79,33.91l-0.92,2.44c-0.41,1.12-0.7,1.76-1.13,2.17c-0.29,0.27-0.57,0.37-0.7,0.4l-0.15-0.44
				c0.8-0.3,1.11-1.17,1.11-1.24c0-0.03-0.01-0.08-0.04-0.15l-1.22-3.18h0.57L92.08,36c0.09,0.24,0.16,0.51,0.22,0.72h0.02
				c0.06-0.21,0.14-0.47,0.22-0.73l0.69-2.08H93.79z"/>
			<path class="st0" d="M96.61,34.43c-0.13-0.08-0.36-0.2-0.67-0.2c-0.38,0-0.58,0.23-0.58,0.51c0,0.3,0.2,0.44,0.64,0.63
				c0.56,0.23,0.88,0.52,0.88,1.04c0,0.61-0.47,1.02-1.22,1.02c-0.34,0-0.67-0.09-0.9-0.23l0.15-0.4c0.18,0.11,0.48,0.23,0.78,0.23
				c0.46,0,0.69-0.25,0.69-0.56c0-0.32-0.18-0.5-0.64-0.68c-0.58-0.23-0.88-0.56-0.88-0.97c0-0.54,0.43-0.98,1.12-0.98
				c0.33,0,0.61,0.09,0.79,0.21L96.61,34.43z"/>
			<path class="st0" d="M98.45,33.28l0.52-0.18v0.8h0.89v0.41h-0.89v1.99c0,0.44,0.13,0.68,0.47,0.68c0.16,0,0.27-0.02,0.35-0.05
				l0.03,0.4c-0.11,0.05-0.29,0.08-0.51,0.08c-0.83,0-0.86-0.76-0.86-1.12v-1.98h-0.53v-0.41h0.53V33.28z"/>
			<path class="st0" d="M103.61,37.2c-0.2,0.09-0.56,0.21-1.08,0.21c-1,0-1.6-0.71-1.6-1.74c0-1.08,0.61-1.86,1.53-1.86
				c1.06,0,1.33,0.97,1.33,1.57c0,0.12-0.01,0.21-0.01,0.29h-2.34c0.01,0.95,0.55,1.31,1.17,1.31c0.43,0,0.69-0.09,0.9-0.18
				L103.61,37.2z M103.27,35.3c0.01-0.47-0.19-1.07-0.86-1.07c-0.63,0-0.91,0.6-0.96,1.07H103.27z"/>
			<path class="st0" d="M109.89,37.35h-0.52v-1.99c0-0.67-0.24-1.1-0.76-1.1c-0.42,0-0.81,0.4-0.81,0.92v2.17h-0.52v-2.12
				c0-0.55-0.23-0.97-0.72-0.97c-0.45,0-0.85,0.44-0.85,0.98v2.11h-0.52v-2.56c0-0.35-0.01-0.61-0.03-0.89h0.46l0.03,0.56h0.02
				c0.19-0.33,0.51-0.63,1.05-0.63c0.45,0,0.8,0.28,0.94,0.69h0.01c0.23-0.41,0.57-0.69,1.1-0.69c0.42,0,1.09,0.27,1.09,1.45V37.35z
				"/>
		</g>
		<g>
			<path class="st1" d="M12.47,3.46h0.49c2.91,0,4.84,0.88,5.78,2.65c0.65,1.15,0.98,2.54,0.98,4.18v1.18
				c0,0.09-0.05,0.14-0.14,0.14h-6.55c-0.09,0-0.14-0.05-0.14-0.14V11.4c0-1.95-0.79-2.93-2.37-2.93C9.22,8.6,8.57,9.07,8.57,9.87
				v0.21c0,0.6,1.23,1.16,3.69,1.67c2.95,0.85,4.97,1.99,6.06,3.41c0.74,1.22,1.11,2.57,1.11,4.04c0,2.84-1.25,5.4-3.76,7.66
				c-1.44,1.02-3.06,1.53-4.88,1.53H8.22c-3.36,0-5.47-0.63-6.34-1.88C0.63,24.96,0,23.03,0,20.73V19.2
				c0.01-0.09,0.06-0.14,0.14-0.14h5.99l0.7-0.07l0.07,0.14v0.28c0,2.46,0.91,3.69,2.72,3.69h0.14c1.25,0,2.09-0.58,2.51-1.74v-0.7
				c0-0.95-1.65-1.81-4.95-2.58c-3.72-1.28-5.57-3.51-5.57-6.69c0-2.37,0.95-4.41,2.86-6.13C9.45,4.06,12.07,3.46,12.47,3.46z"/>
			<path class="st1" d="M43.81,3.46H24.1c-0.13,0-0.41,2.09-0.84,6.27c0.05,0,0.07,0.02,0.07,0.07l20.34-5.09
				c0.19,0,0.28-0.37,0.28-1.11C43.95,3.52,43.9,3.47,43.81,3.46z"/>
			<path class="st1" d="M43.6,6.45l-15.81,3.76v0.14h1.88c-1.3,11.6-1.95,17.54-1.95,17.83c0,0.14,0.05,0.21,0.14,0.21h6.9
				c0.08,0,0.75-6.01,2.02-18.04h6.34c0.12,0,0.3-1.28,0.56-3.83C43.63,6.52,43.6,6.5,43.6,6.45z"/>
			<path class="st1" d="M69.32,17.74l-7.59,1.81c-0.79,1.81-2,2.72-3.62,2.72h-0.28c-1.02,0-1.81-0.39-2.37-1.18
				c-0.15,0-2.57,0.58-7.24,1.74c0.21,1.02,1,2.3,2.37,3.83c1.83,1.16,3.85,1.74,6.06,1.74h1.46c3.31,0,5.86-1,7.66-3
				c1.6-1.46,2.81-3.99,3.62-7.59C69.34,17.81,69.32,17.78,69.32,17.74z"/>
			<path class="st1" d="M68.97,8.47C67.65,5.13,65,3.46,61.03,3.46h-1.46c-1.27,0-2.43,0.14-3.48,0.42c-1.14,0-2.65,0.86-4.53,2.58
				c-2.69,3.13-4.04,6.99-4.04,11.56v0.63c0,1.32,0.14,2.39,0.42,3.2c4.56-1.11,6.88-1.72,6.97-1.81c-0.14-0.75-0.21-1.43-0.21-2.02
				v-0.35c0-0.6,0.05-1.32,0.14-2.16c0.57-3.9,2.01-5.85,4.32-5.85h0.42c0.23,0,0.51,0.05,0.84,0.14c1.49,0.51,2.23,1.83,2.23,3.97
				v0.21c0,1.16-0.16,2.55-0.49,4.18l0.07,0.14l7.11-1.81c0.32,0,0.49-0.98,0.49-2.93v-0.07C69.81,11.53,69.53,9.85,68.97,8.47z"/>
			<path class="st0" d="M93.37,2.83V2.76c-1.5-0.88-3.15-1.32-4.95-1.32h-1.53c-4.91,0-8.58,1.9-11.01,5.71v0.07h0.07L93.37,2.83z"
				/>
			<path class="st1" d="M93.99,6.45c-0.31-0.31-0.89-0.78-1.74-1.39c-11.22,2.69-16.88,4.04-17,4.04c-1.25,2.68-1.88,5.51-1.88,8.5
				v0.84c0,2.19,0.53,4.19,1.6,5.99c1.38,2.65,4.08,3.97,8.08,3.97c3.85,0,6.76-1.46,8.71-4.39c1.18-2.02,1.88-3.55,2.09-4.6
				l-0.14-0.07H87.1l-0.14,0.07c-0.74,1.67-1.9,2.51-3.48,2.51c-1.95,0-2.93-1.23-2.93-3.69v-1.05c0-0.44,0.07-1.32,0.21-2.65
				c0.63-3.58,2.07-5.36,4.32-5.36c1.31,0,2.24,0.72,2.79,2.16c0.13,1.16,0.24,1.74,0.35,1.74h7.24L95.6,13
				c0-0.08,0.02-0.64,0.07-1.67C95.67,9.38,95.11,7.75,93.99,6.45z"/>
			<path class="st1" d="M101.04,3.46h6.83c0.09,0.01,0.14,0.06,0.14,0.14c-0.56,5.18-0.86,7.85-0.91,8.01h0.07
				c4.43-5.27,6.76-7.99,6.97-8.15h8.36c0.14,0,0.26,0.28,0.35,0.84l-8.22,8.78c4.18,10.05,6.27,15.14,6.27,15.26l-0.14,0.07h-8.43
				c-0.15,0-0.43-0.74-0.84-2.23c-1.44-4.23-2.23-6.64-2.37-7.24h-0.07c-2.08,2.17-3.12,3.33-3.13,3.48
				c-0.37,3.99-0.63,5.99-0.77,5.99h-6.9l-0.14-0.07c1.76-15.97,2.69-24.24,2.79-24.8L101.04,3.46z"/>
			<path class="st1" d="M132.7,22.54c-0.14,0-0.39,1.9-0.77,5.71c0,0.09,0.05,0.14,0.14,0.14h6.97c0.09-0.43,0.37-2.87,0.84-7.31
				l-0.07-0.14C135.2,22.01,132.83,22.54,132.7,22.54z"/>
			<path class="st1" d="M149.91,3.46h-7.66l-0.14,0.07c-2.96,4.82-4.54,7.33-4.74,7.52c-1.95-5.06-3-7.59-3.13-7.59h-7.8v0.07
				c0,0.1,2.21,4.93,6.62,14.49l-0.35,3.27c0.05,0,0.07,0.02,0.07,0.07c1.51-0.32,3.9-0.91,7.18-1.74c0.09,0,0.19-0.51,0.28-1.53
				c0.52-0.85,3.8-5.68,9.82-14.49C150.05,3.52,150,3.47,149.91,3.46z"/>
			<g>
				<path class="st2" d="M178.54,25.06c-0.59-0.33-1.28-0.52-2-0.52c-0.73,0-1.41,0.19-2,0.52c-1.26,0.71-2.12,2.06-2.12,3.6
					c0,2.27,1.84,4.12,4.12,4.12c2.27,0,4.12-1.85,4.12-4.12C180.65,27.12,179.79,25.77,178.54,25.06z M176.53,30.23
					c-0.86,0-1.57-0.7-1.57-1.56c0-0.86,0.7-1.56,1.57-1.56c0.86,0,1.56,0.7,1.56,1.56C178.09,29.52,177.39,30.23,176.53,30.23z"/>
			</g>
			<g>
				<path class="st2" d="M165.04,25.06c-0.03-0.02-0.06-0.03-0.09-0.05c-0.28-0.15-0.59-0.27-0.91-0.34c-0.32-0.08-0.65-0.13-1-0.13
					c-0.72,0-1.41,0.19-2,0.52c-1.26,0.7-2.12,2.05-2.12,3.6c0,0.5,0.09,0.98,0.26,1.42c0.41,1.13,1.31,2.03,2.44,2.44
					c0.44,0.16,0.93,0.26,1.42,0.26c2.27,0,4.12-1.85,4.12-4.12C167.16,27.12,166.3,25.76,165.04,25.06z M163.04,30.23
					c-0.86,0-1.56-0.7-1.56-1.56c0-0.86,0.7-1.56,1.56-1.56s1.56,0.7,1.56,1.56C164.6,29.52,163.9,30.23,163.04,30.23z"/>
			</g>
			<g>
				<path class="st3" d="M184.03,13.08h-27.56c-0.71,0-1.28-0.57-1.28-1.28s0.57-1.28,1.28-1.28h27.56c0.71,0,1.28,0.57,1.28,1.28
					S184.74,13.08,184.03,13.08z"/>
			</g>
			<g>
				<path class="st4" d="M162.26,19.51c-0.71,0-1.28-0.57-1.28-1.28V5.42c0-0.71,0.57-1.28,1.28-1.28s1.28,0.57,1.28,1.28v12.81
					C163.54,18.94,162.96,19.51,162.26,19.51z"/>
			</g>
			<g>
				<path class="st4" d="M170.15,19.51c-0.71,0-1.28-0.57-1.28-1.28V5.42c0-0.71,0.57-1.28,1.28-1.28s1.28,0.57,1.28,1.28v12.81
					C171.43,18.94,170.86,19.51,170.15,19.51z"/>
			</g>
			<g>
				<path class="st4" d="M178.04,21.24c-0.71,0-1.28-0.57-1.28-1.28V5.58c0-0.71,0.57-1.28,1.28-1.28s1.28,0.57,1.28,1.28v14.39
					C179.32,20.67,178.75,21.24,178.04,21.24z"/>
			</g>
			<polygon class="st5" points="185.79,9.81 187.32,2.56 187.15,2.56 			"/>
			<path class="st0" d="M192.76,1.28c0,0.4-0.18,0.75-0.47,0.99c-0.22,0.19-0.5,0.3-0.81,0.3h-4.15V2.56l0.31-1.48L187.86,0h3.61
				c0.04,0,0.08,0,0.11,0.01c0.22,0.02,0.43,0.09,0.6,0.21c0.07,0.05,0.13,0.1,0.19,0.16c0.21,0.21,0.34,0.48,0.37,0.79
				C192.76,1.2,192.76,1.24,192.76,1.28z"/>
			<path class="st3" d="M187.86,0l-0.23,1.08l-0.31,1.48v0.01h-0.18l-1.35,7.25l-2.85,15.25h-25.26c-0.71,0-1.28-0.57-1.28-1.28
				c0-0.71,0.57-1.28,1.28-1.28h22.74l1.41,0.21c0.07,0.01,0.13,0.02,0.19,0.02c0.62,0,1.17-0.46,1.26-1.09
				c0.1-0.7-0.38-1.35-1.08-1.45l-0.94-0.14l1.3-6.96l0.48-2.56l0.83-4.45h1.25c0.71,0,1.28-0.57,1.28-1.28
				c0-0.68-0.54-1.24-1.21-1.28c-0.02-0.01-0.04-0.01-0.07-0.01h-0.77l0.66-3.5H187.86z"/>
			<polygon class="st3" points="184.36,3.5 184.17,4.54 183.89,6.06 157.42,6.06 157.42,16.51 160.98,17.03 163.54,17.41 
				168.87,18.2 170.3,18.41 171.38,18.57 171.39,18.57 176.76,19.37 177.33,19.45 179.32,19.75 179.33,19.75 181.28,20.04 
				180.82,22.5 180.43,22.5 168.04,20.67 154.86,18.71 154.86,3.5 			"/>
			<path class="st3" d="M185.13,6.06c0.71,0,1.28-0.57,1.28-1.28s-0.57-1.28-1.28-1.28h-0.77l-0.48,2.56H185.13z"/>
			<path class="st3" d="M182.03,22.73c0.62,0,1.17-0.46,1.26-1.09c0.1-0.7-0.38-1.35-1.08-1.45l-0.94-0.14l-0.46,2.46h-0.39
				l1.41,0.21C181.9,22.72,181.97,22.73,182.03,22.73z"/>
		</g>
	</g>
</g>
</svg>
